<?xml version="1.0" encoding="UTF-8" standalone="no"?>
<!DOCTYPE svg PUBLIC "-//W3C//DTD SVG 1.1//EN" "http://www.w3.org/Graphics/SVG/1.1/DTD/svg11.dtd">
<svg width="100%" height="100%" viewBox="0 0 2248 625" version="1.1" xmlns="http://www.w3.org/2000/svg" xmlns:xlink="http://www.w3.org/1999/xlink" xml:space="preserve" xmlns:serif="http://www.serif.com/" style="fill-rule:evenodd;clip-rule:evenodd;stroke-linejoin:round;stroke-miterlimit:2;">
    <path d="M2191.9,341.7L2191.9,341.4C2192.17,341.533 2192.4,341.633 2192.6,341.7L2191.9,341.7ZM2191.9,341.4L2191.9,312.1C2191.9,286.5 2165.7,273 2137.4,273.7C2116.5,273.7 2095,280.4 2082.2,295.2L2051.3,262.9C2079.5,231.3 2111.2,223.9 2144.8,223.9C2195.9,223.9 2247.7,250.8 2247.7,310.1L2247.7,477.1C2223.5,485.9 2187.2,494.6 2148.8,494.6C2094.3,494.6 2042.5,477.1 2042.5,415.1C2042.5,357.9 2091,331.6 2139.4,331.6C2158,331.6 2177.2,334.9 2191.9,341.4ZM2192.6,384.8C2181.1,380.1 2164.3,376.1 2147.5,376.1C2115.2,376.1 2097,392.2 2097,415.1C2097,440.1 2120.6,448.8 2145.5,448.8C2163.6,448.8 2180.5,446.1 2192.6,443.4L2192.6,384.8ZM2035.1,494.6C2027.7,495.3 2021,496 2014.3,496C1963.1,496 1922.1,468.3 1922.1,402.3L1922.1,167.3L1971.9,167.3L1977.3,228.6L2027.1,228.6L2027.1,279.1L1977.3,279.1L1977.3,401.7C1977.3,442.8 2004.9,445.4 2035.1,445.4L2035.1,494.6ZM1886.5,441.4C1866.3,477.1 1827.3,494.6 1792.9,494.6C1741.1,494.6 1689.3,465 1689.3,405.1L1689.3,313.5C1689.3,252.8 1741.8,223.9 1792.9,223.9C1842.7,223.9 1894.5,252.2 1894.5,313.5L1894.5,385.5L1745.2,385.5L1745.2,403.7C1745.2,427.3 1768,441.4 1791.6,441.4C1810.4,441.4 1830.6,434.7 1840,415.2L1886.5,441.4ZM1840.8,339L1840.8,314.7C1840.8,290.5 1817.2,277.7 1793,277.7C1768.1,277.7 1744.6,289.8 1745.3,315.4L1745.3,339L1840.8,339ZM1627.5,229.2L1697.5,229.2L1588.5,349.8L1696.8,490.5L1631.5,490.5L1549.5,383.4L1534,398.9L1534,489.9L1478.8,489.9L1478.8,132.2L1534,132.2L1534,334.3L1627.5,229.2ZM1249.4,314C1249.4,252.7 1301.2,223.8 1352.3,223.8C1393.4,223.8 1439.8,242.6 1453.9,292.5L1403.4,311.3C1396.7,288.4 1376.5,277.7 1355,277.7C1331.5,277.7 1305.2,289.8 1305.2,312.7L1305.2,405.6C1305.2,427.9 1328.8,440.7 1353,440.7C1374.5,440.7 1397.4,429.9 1404.1,407L1455.3,425.8C1441.1,475.7 1394,494.6 1353,494.6C1301.9,494.6 1250.1,465.6 1250.1,405L1249.4,314ZM1163.2,311.9C1163.2,286.4 1137,272.9 1108.7,273.6C1087.9,273.6 1066.4,280.3 1053.6,295.1L1022.6,262.8C1050.9,231.1 1083.2,223.7 1116.1,223.7C1167.3,223.7 1219.1,250.7 1219.1,309.9L1219.1,477C1194.9,485.7 1158.5,494.5 1120.2,494.5C1065.7,494.5 1013.9,477 1013.9,415C1013.9,357.7 1062.3,331.5 1110.8,331.5C1129.6,331.5 1149.1,334.8 1163.9,341.6L1163.2,311.9ZM1163.9,384.6C1152.4,379.9 1135.6,375.9 1118.8,375.9C1086.5,375.9 1068.4,392 1068.4,414.9C1068.4,439.9 1091.2,448.6 1116.8,448.6C1135,448.6 1151.8,445.9 1163.9,443.2L1163.9,384.6ZM744.8,132.7L882.7,132.7C965.4,132.7 1006.5,192.7 1006.5,250.6C1006.5,309.9 964.7,366.4 883.3,366.4L801.9,366.4L801.9,489.7L744.8,489.7L744.8,132.7ZM801.9,311.9L882.7,311.9C927.1,311.9 948.6,280.2 948.6,250.6C948.6,220.9 925.7,190.6 882.7,190.6L801.9,190.6L801.9,311.9Z"/>
    <path d="M303.7,251L289.1,257.9L274.4,251L70.1,150L167,113L376.6,214.8L303.7,251ZM508.4,150L435.2,185.5L223.1,91.2L289.1,65.7L508.4,150Z" style="fill-rule:nonzero;"/>
    <path d="M297,0.5L565.2,104.2L527.5,134.4L289.1,42L50.6,134.4L13,104.2L281.4,0.5L297,0.5ZM533.8,143.3L578.1,126.2L544.8,401.2L538.1,413.4L302.8,625L295.1,576.3L504.7,388L533.8,143.3ZM40.1,413.4L33.4,401.2L0.1,126.2L44.5,143.3L73.7,388.2L283.1,576.6L275.7,625L40.1,413.4Z" style="fill-rule:nonzero;"/>
    <path d="M440.9,194.1L508.6,152.9L481.9,374.3L290.5,546.5L301,279.8L385,228.2L379.5,358.9L431.8,322.2L440.9,194.1Z" style="fill-rule:nonzero;"/>
    <path d="M277.1,279.8L287.6,546.3L96.4,374.3L69.6,152.9L277.1,279.8Z" style="fill-rule:nonzero;"/>
</svg>
