<?xml version="1.0" encoding="utf-8"?>
<!-- Generator: Adobe Illustrator 25.1.0, SVG Export Plug-In . SVG Version: 6.00 Build 0)  -->
<svg version="1.1" id="Vrstva_1" xmlns="http://www.w3.org/2000/svg" xmlns:xlink="http://www.w3.org/1999/xlink" x="0px" y="0px"
	 viewBox="0 0 144 40" style="enable-background:new 0 0 144 40;" xml:space="preserve">
<style type="text/css">
	.st0{fill:#BA1B02;}
	.st1{fill-rule:evenodd;clip-rule:evenodd;fill:#BA1B02;}
</style>
<path class="st0" d="M140.5,28.3c-0.8,0.2-1.9,0.3-3,0.3c-1.6,0-3.1-0.6-3.1-2.2c0-1.5,1.2-2.5,3.2-2.5c1.1,0,2.2,0.3,2.9,0.6V28.3z
	 M140.5,21.8c-0.9-0.4-2.2-0.6-3.4-0.6c-3.1,0-6.2,1.7-6.2,5.4c0,4,3.3,5.1,6.8,5.1c2.5,0,4.8-0.6,6.3-1.1V19.8
	c0-3.8-3.3-5.5-6.6-5.5c-2.2,0-4.2,0.5-6,2.5l2,2.1c0.8-0.9,2.2-1.4,3.5-1.4c1.8,0,3.5,0.8,3.5,2.5L140.5,21.8L140.5,21.8z
	 M130.4,28.4c-1.9,0-3.7-0.2-3.7-2.8v-7.9h3.2v-3.2h-3.2l-0.3-3.9h-3.2v15.1c0,4.2,2.6,6,5.9,6c0.4,0,0.9,0,1.3-0.1V28.4z M118,21.6
	h-6.2v-1.5c0-1.6,1.5-2.4,3.1-2.4c1.6,0,3.1,0.8,3.1,2.4L118,21.6L118,21.6z M117.9,26.5c-0.6,1.3-1.9,1.7-3.1,1.7
	c-1.5,0-3-0.9-3-2.4v-1.2h9.6V20c0-3.9-3.3-5.7-6.5-5.7c-3.3,0-6.6,1.9-6.6,5.7v5.9c0,3.8,3.3,5.7,6.6,5.7c2.2,0,4.7-1.1,6-3.4
	L117.9,26.5z M98.3,21.3V8.4h-3.5v22.9h3.5v-5.8l1-1l5.3,6.9h4.2l-6.9-9l7-7.7h-4.5L98.3,21.3z M80.1,25.8c0,3.9,3.3,5.7,6.6,5.7
	c2.6,0,5.6-1.2,6.6-4.4L90,26c-0.4,1.5-1.9,2.2-3.3,2.2c-1.6,0-3.1-0.8-3.1-2.2v-6c0-1.5,1.7-2.2,3.2-2.2c1.4,0,2.7,0.7,3.1,2.2
	l3.2-1.2c-0.9-3.2-3.9-4.4-6.5-4.4c-3.3,0-6.6,1.9-6.6,5.8L80.1,25.8z M74.6,28.3c-0.8,0.2-1.9,0.3-3,0.3c-1.6,0-3.1-0.6-3.1-2.2
	c0-1.5,1.2-2.5,3.2-2.5c1.1,0,2.2,0.3,2.9,0.6V28.3z M74.6,21.8c-0.9-0.4-2.2-0.6-3.4-0.6c-3.1,0-6.2,1.7-6.2,5.4
	c0,4,3.3,5.1,6.8,5.1c2.5,0,4.8-0.6,6.3-1.1V19.8c0-3.8-3.3-5.5-6.6-5.5c-2.1,0-4.2,0.5-6,2.5l2,2.1c0.8-0.9,2.2-1.4,3.5-1.4
	c1.8,0,3.5,0.8,3.5,2.5L74.6,21.8z M51.4,19.9v-7.8h5.2c2.8,0,4.2,1.9,4.2,3.8s-1.4,3.9-4.2,3.9L51.4,19.9L51.4,19.9z M47.7,31.3
	h3.7v-7.9h5.2c5.2,0,7.9-3.6,7.9-7.4c0-3.7-2.6-7.6-7.9-7.6h-8.8V31.3z"/>
<path class="st1" d="M19.4,16.1l-0.9,0.4l-0.9-0.4l-13-6.5l6.2-2.4l13.4,6.5L19.4,16.1z M32.5,9.6l-4.7,2.3l-13.5-6l4.2-1.6
	L32.5,9.6z"/>
<path class="st1" d="M19,0l17.2,6.6l-2.4,1.9l-15.2-6L3.2,8.6L0.8,6.6L18,0L19,0L19,0z M34.1,9.1l2.8-1.1l-2.1,17.6l-0.4,0.8
	L19.4,40l-0.5-3.1l13.4-12L34.1,9.1z M2.5,26.5l-0.4-0.8L0,8.1l2.8,1.1l1.9,15.7l13.4,12L17.6,40L2.5,26.5z"/>
<path class="st1" d="M28.2,12.4l4.3-2.7l-1.7,14.2L18.6,35l0.6-17l5.4-3.3L24.3,23l3.3-2.3L28.2,12.4z"/>
<path class="st1" d="M17.7,17.9l0.6,17l-12.2-11L4.4,9.8L17.7,17.9z"/>
</svg>
